<svg width="1022.7" height="785.81" xmlns="http://www.w3.org/2000/svg">

 <title>bug fixing</title>
 <g>
  <title>background</title>
  <rect fill="none" id="canvas_background" height="602" width="802" y="-1" x="-1"/>
 </g>
 <g>
  <title>Layer 1</title>
  <ellipse id="svg_1" opacity="0.1" fill="#63ff65" ry="33" rx="425" cy="660.88" cx="468.63"/>
  <g id="svg_2" opacity="0.1">
   <path id="svg_3" fill="#3f3d56" d="m845.05,472.84c-2.54,-7.71 -12.84,-11.26 -23,-7.92a24.76,24.76 0 0 0 -4.23,1.83c-0.65,-0.18 -1.32,-0.34 -2,-0.46a22.42,22.42 0 0 0 0.63,-6.79a24.6,24.6 0 0 0 10.9,-21.47a24.63,24.63 0 0 0 10.86,-21.47a23.76,23.76 0 0 0 8.23,-9.32c4.9,-9.7 2.87,-20.6 -4.54,-24.35s-17.4,1.08 -22.3,10.78a23.69,23.69 0 0 0 -2.63,12.15a24.63,24.63 0 0 0 -10.86,21.47a24.63,24.63 0 0 0 -10.86,21.47a24.64,24.64 0 0 0 -10.9,21.48a23.76,23.76 0 0 0 -8.23,9.32a25.46,25.46 0 0 0 -2.08,5.74a21.18,21.18 0 0 0 -4.44,-4.73a25.38,25.38 0 0 0 -1,-4.5c-3.34,-10.17 -12.3,-16.37 -20,-13.83s-11.26,12.83 -7.92,23a23.07,23.07 0 0 0 7.56,11.08a25.38,25.38 0 0 0 1,4.5c1.94,5.9 5.77,10.46 10.15,12.75a23.23,23.23 0 0 0 -0.83,3.9a25.29,25.29 0 0 0 -7.54,14.91a25.27,25.27 0 0 0 -7.54,14.92a24.63,24.63 0 0 0 -5,6.81c-4.91,9.7 -2.88,20.61 4.53,24.35s17.4,-1.07 22.31,-10.78a24.62,24.62 0 0 0 2.5,-8.09a25.29,25.29 0 0 0 7.54,-14.91a25.27,25.27 0 0 0 7.54,-14.92a25.21,25.21 0 0 0 7.45,-14.91a25.21,25.21 0 0 0 7.56,-14.94a24.11,24.11 0 0 0 3.39,-4a23.46,23.46 0 0 0 12.27,-0.77a24.76,24.76 0 0 0 4.23,-1.83a23.2,23.2 0 0 0 13.42,-0.48c10.13,-3.31 16.36,-12.27 13.83,-19.99z"/>
   <g id="svg_4" opacity="0.1">
    <path id="svg_5" d="m827.12,442.44a21.5,21.5 0 0 1 -3.44,2.75a23,23 0 0 1 -1.11,8.43a26.18,26.18 0 0 0 2.1,-3.43a24.64,24.64 0 0 0 2.45,-7.75z"/>
    <path id="svg_6" d="m837.98,420.97a21.5,21.5 0 0 1 -3.44,2.75a23,23 0 0 1 -1.11,8.43a25.65,25.65 0 0 0 2.1,-3.44a24.85,24.85 0 0 0 2.45,-7.74z"/>
    <path id="svg_7" d="m813.35,412.98a21.91,21.91 0 0 1 0.17,-4.41a24.93,24.93 0 0 0 -4.78,6.57a25.63,25.63 0 0 0 -1.52,3.73a22.75,22.75 0 0 1 6.13,-5.89z"/>
    <path id="svg_8" d="m744.42,542.91a23.59,23.59 0 0 1 2.95,-3.38a22.92,22.92 0 0 1 0.87,-4a25.09,25.09 0 0 0 -2.29,3.71a25.59,25.59 0 0 0 -1.53,3.67z"/>
    <path id="svg_9" d="m751.96,528.01a23.59,23.59 0 0 1 2.95,-3.38a23,23 0 0 1 0.83,-3.9l0,0a25.68,25.68 0 0 0 -2.2,3.59a26.76,26.76 0 0 0 -1.58,3.69z"/>
    <path id="svg_10" d="m816.25,463.91a20.82,20.82 0 0 1 -3.43,2.74a22.45,22.45 0 0 1 -0.63,6.79a18.75,18.75 0 0 1 2,0.46a24.76,24.76 0 0 1 4.23,-1.83c10.18,-3.34 20.47,0.21 23,7.92a11.68,11.68 0 0 1 0.32,6c3.35,-3.94 4.74,-8.74 3.3,-13.14c-2.54,-7.71 -12.84,-11.26 -23,-7.92a24.76,24.76 0 0 0 -4.23,1.83c-0.65,-0.18 -1.32,-0.34 -2,-0.46c0.19,-0.8 0.33,-1.59 0.44,-2.39z"/>
    <path id="svg_11" d="m740.7,550.4a25.09,25.09 0 0 0 -2.29,3.71a26.56,26.56 0 0 0 -1.54,3.74a24.48,24.48 0 0 1 3,-3.4a22.92,22.92 0 0 1 0.83,-4.05z"/>
    <path id="svg_12" d="m802.44,434.45a22,22 0 0 1 0.17,-4.41a24.93,24.93 0 0 0 -4.78,6.57a25.63,25.63 0 0 0 -1.52,3.73a22.75,22.75 0 0 1 6.13,-5.89z"/>
    <path id="svg_13" d="m786.75,522.01a24.29,24.29 0 0 1 -1,4.38a26.67,26.67 0 0 0 2.09,-3.44a25.49,25.49 0 0 0 1.63,-4a24.23,24.23 0 0 1 -2.72,3.06z"/>
    <path id="svg_14" d="m771.67,551.83a24.15,24.15 0 0 1 -1,4.38a25.65,25.65 0 0 0 2.1,-3.44a26.47,26.47 0 0 0 1.63,-4a23.57,23.57 0 0 1 -2.73,3.06z"/>
    <path id="svg_15" d="m779.21,536.91a24.11,24.11 0 0 1 -1,4.38a26.67,26.67 0 0 0 2.14,-3.38a25.49,25.49 0 0 0 1.63,-4a24.23,24.23 0 0 1 -2.77,3z"/>
    <path id="svg_16" d="m794.29,507.1a24,24 0 0 1 -1,4.37a25.89,25.89 0 0 0 2.09,-3.43a25.48,25.48 0 0 0 1.64,-4.07a23.22,23.22 0 0 1 -2.73,3.13z"/>
    <path id="svg_17" d="m744.92,469.39c7.72,-2.53 16.68,3.66 20,13.83a25.68,25.68 0 0 1 1,4.51a21.18,21.18 0 0 1 4.44,4.73a25.53,25.53 0 0 1 2.08,-5.75c0.35,-0.68 0.73,-1.33 1.12,-2a21.07,21.07 0 0 0 -4,-4.18a25.38,25.38 0 0 0 -1,-4.5c-3.34,-10.17 -12.3,-16.37 -20,-13.83c-4.4,1.44 -7.44,5.41 -8.62,10.43a11.69,11.69 0 0 1 4.98,-3.24z"/>
    <path id="svg_18" d="m780.72,477.39a21.85,21.85 0 0 1 0.18,-4.4a24.73,24.73 0 0 0 -4.79,6.57a25.07,25.07 0 0 0 -1.52,3.72a23,23 0 0 1 6.13,-5.89z"/>
    <path id="svg_19" d="m791.58,455.91a21.85,21.85 0 0 1 0.18,-4.4a24.52,24.52 0 0 0 -4.79,6.56a25.63,25.63 0 0 0 -1.52,3.73a22.75,22.75 0 0 1 6.13,-5.89z"/>
    <path id="svg_20" d="m764.13,566.74a24.25,24.25 0 0 1 -1,4.39a25.73,25.73 0 0 0 3.73,-7.49a23.57,23.57 0 0 1 -2.73,3.1z"/>
   </g>
   <path id="svg_21" fill="#3f3d56" d="m859.87,373.62a23.68,23.68 0 0 0 8.23,-9.32c4.91,-9.7 2.88,-20.61 -4.53,-24.36s-17.4,1.08 -22.31,10.79a23.68,23.68 0 0 0 -2.62,12.18a24.63,24.63 0 0 0 -10.86,21.47a23.61,23.61 0 0 0 -8.23,9.32a24.69,24.69 0 0 0 -1.51,3.69a20.85,20.85 0 0 1 10.77,-8a12.24,12.24 0 0 0 15.54,7.84a20.85,20.85 0 0 1 0,13.41a25.48,25.48 0 0 0 2.08,-3.4a23.68,23.68 0 0 0 2.62,-12.15a24.57,24.57 0 0 0 10.86,-21.47l-0.04,0z"/>
   <path id="svg_22" fill="#63ff65" d="m979.23,235.98a72,72 0 0 0 8.72,-4.83l-32.33,-23.62l38,19.57a72.13,72.13 0 0 0 27,-50.31l-64.58,0.66l64.72,-10.82a72,72 0 1 0 -142.58,18.28a72.09,72.09 0 0 0 -13.26,8l33.75,46.93l-40.52,-41.08a72.08,72.08 0 0 0 -20.17,65.61a72,72 0 1 0 101.05,51.1a72,72 0 0 0 40.2,-79.49z"/>
   <path id="svg_23" opacity="0.1" d="m844.35,217.66a71.77,71.77 0 0 0 -6.35,46.71a72,72 0 1 0 101.05,51.1c14.13,-6.56 -91.08,-105.02 -94.7,-97.81z"/>
   <circle id="svg_24" fill="#63ff65" r="10.69" cy="102.72" cx="925.49"/>
   <circle id="svg_25" fill="#63ff65" r="10.69" cy="109.58" cx="987.93"/>
   <circle id="svg_26" fill="#63ff65" r="10.69" cy="205.64" cx="1012.01"/>
   <circle id="svg_27" fill="#63ff65" r="10.69" cy="253.61" cx="979.51"/>
   <circle id="svg_28" fill="#63ff65" r="10.69" cy="353.24" cx="935.11"/>
   <circle id="svg_29" opacity="0.1" r="10.69" cy="353.24" cx="935.11"/>
   <circle id="svg_30" fill="#63ff65" r="10.69" cy="240.4" cx="836.39"/>
   <circle id="svg_31" opacity="0.1" r="10.69" cy="240.4" cx="836.39"/>
   <path id="svg_32" opacity="0.1" d="m824.99,416.23c-7.11,-3.59 -9.26,-13.76 -5.11,-23.14c-0.22,0.38 -0.43,0.77 -0.63,1.18c-4.91,9.7 -2.88,20.6 4.53,24.35s17.4,-1.08 22.3,-10.78c0.21,-0.4 0.39,-0.81 0.57,-1.21c-5.09,8.91 -14.56,13.2 -21.66,9.6z"/>
   <path id="svg_33" opacity="0.1" d="m814.43,437.11c-7.1,-3.59 -9.26,-13.76 -5.1,-23.15c-0.22,0.39 -0.44,0.78 -0.64,1.18c-4.91,9.7 -2.88,20.61 4.53,24.35s17.4,-1.07 22.31,-10.78c0.2,-0.4 0.39,-0.8 0.57,-1.21c-5.1,8.91 -14.56,13.2 -21.67,9.61z"/>
   <path id="svg_34" opacity="0.1" d="m803.87,457.98c-7.1,-3.59 -9.26,-13.76 -5.1,-23.14c-0.22,0.38 -0.44,0.77 -0.64,1.18c-4.91,9.7 -2.87,20.6 4.54,24.35s17.39,-1.08 22.3,-10.78c0.2,-0.4 0.39,-0.81 0.57,-1.21c-5.09,8.91 -14.56,13.2 -21.67,9.6z"/>
   <path id="svg_35" opacity="0.1" d="m793.35,478.91c-7.11,-3.59 -9.26,-13.76 -5.11,-23.14c-0.22,0.38 -0.43,0.77 -0.64,1.17c-4.9,9.7 -2.87,20.61 4.54,24.36s17.4,-1.08 22.3,-10.79c0.21,-0.4 0.39,-0.8 0.57,-1.21c-5.12,8.86 -14.59,13.15 -21.66,9.61z"/>
   <path id="svg_36" opacity="0.1" d="m782.76,499.73c-7.11,-3.59 -9.26,-13.76 -5.11,-23.14c-0.22,0.38 -0.43,0.77 -0.63,1.18c-4.91,9.7 -2.88,20.6 4.53,24.35s17.4,-1.08 22.31,-10.78c0.2,-0.4 0.39,-0.81 0.57,-1.21c-5.08,8.91 -14.57,13.2 -21.67,9.6z"/>
   <path id="svg_37" opacity="0.1" d="m772.2,520.61c-7.1,-3.59 -9.26,-13.76 -5.1,-23.14c-0.22,0.38 -0.44,0.77 -0.64,1.17c-4.91,9.7 -2.88,20.61 4.54,24.36s17.35,-1.09 22.35,-10.79c0.2,-0.4 0.39,-0.8 0.57,-1.21c-5.15,8.91 -14.57,13.2 -21.72,9.61z"/>
   <path id="svg_38" opacity="0.1" d="m761.64,541.48c-7.1,-3.59 -9.26,-13.76 -5.1,-23.14c-0.22,0.39 -0.43,0.77 -0.64,1.18c-4.9,9.7 -2.87,20.6 4.54,24.35s17.4,-1.08 22.3,-10.78c0.21,-0.4 0.39,-0.81 0.57,-1.21c-5.09,8.91 -14.56,13.2 -21.67,9.6z"/>
   <path id="svg_39" opacity="0.1" d="m751.09,562.36c-7.11,-3.59 -9.26,-13.76 -5.11,-23.14q-0.33,0.57 -0.63,1.17c-4.91,9.7 -2.88,20.61 4.53,24.36s17.4,-1.08 22.31,-10.79c0.2,-0.4 0.38,-0.8 0.56,-1.21c-5.09,8.91 -14.56,13.16 -21.66,9.61z"/>
   <path id="svg_40" opacity="0.1" d="m744.15,576.08c-7.1,-3.6 -9.26,-13.76 -5.1,-23.15c-0.22,0.39 -0.44,0.78 -0.64,1.18c-4.91,9.7 -2.88,20.61 4.53,24.35s17.4,-1.07 22.31,-10.78c0.2,-0.4 0.39,-0.8 0.57,-1.21c-5.1,8.91 -14.57,13.2 -21.67,9.61z"/>
   <path id="svg_41" fill="#63ff65" d="m934.94,483.17a37.4,37.4 0 0 0 2,-9.79a5.34,5.34 0 1 0 -0.81,-10.62a37.31,37.31 0 0 0 -19.64,-25.31a5.34,5.34 0 1 0 -9.54,-4.82a5,5 0 0 0 -0.48,1.43a37.49,37.49 0 0 0 -32.87,9.85a37.64,37.64 0 0 0 -9.82,-0.29l-4.33,19.71l-0.26,-19a37.42,37.42 0 1 0 20,72a5.28,5.28 0 0 0 2.25,2.16a5.34,5.34 0 0 0 7.32,-6.88a37.35,37.35 0 0 0 4.8,-3.92a37.45,37.45 0 0 0 39.31,-19.83l-20.15,-3.39l22.22,-1.3z"/>
   <g id="svg_42" opacity="0.1">
    <path id="svg_43" d="m903.81,492.74c-7.44,-9.82 -12,-21.45 -17.25,-32.61a136.38,136.38 0 0 0 -7.07,-13.36l-3.94,-4.59c-0.66,0.56 -1.32,1.14 -2,1.75a37.64,37.64 0 0 0 -9.82,-0.29l-4.33,19.71l-0.26,-19a37.42,37.42 0 1 0 20,72a5.28,5.28 0 0 0 2.25,2.16a5.34,5.34 0 0 0 7.32,-6.88a37.35,37.35 0 0 0 4.8,-3.92a37.49,37.49 0 0 0 22.44,-3.32a52.71,52.71 0 0 1 -12.14,-11.65z"/>
   </g>
   <path id="svg_44" fill="#63ff65" d="m772.06,450.54a5.34,5.34 0 0 0 -4.78,-7.75a37.37,37.37 0 0 0 -11.7,-20.83a37.52,37.52 0 0 0 1.1,-11.7l-19.65,-3.35l19.08,-1.2a38,38 0 0 0 -1.41,-5.28a5.46,5.46 0 0 0 1.76,-2a5.35,5.35 0 0 0 -6.59,-7.44a37.42,37.42 0 0 0 -66.79,30.92a5.25,5.25 0 0 0 -2.66,2.5a5.34,5.34 0 0 0 6.75,7.37a37.53,37.53 0 0 0 7.09,8.65a37.4,37.4 0 0 0 1.74,23.76l26.35,-6.84l-23.5,12.36a37.42,37.42 0 0 0 68.91,-16.26a5.33,5.33 0 0 0 4.3,-2.91z"/>
   <path id="svg_45" opacity="0.1" d="m772.06,450.54a5.34,5.34 0 0 0 -4.78,-7.75a37.37,37.37 0 0 0 -11.7,-20.83c0.16,-0.63 0.3,-1.25 0.42,-1.88a13.18,13.18 0 0 0 -1.93,1.71c-3.55,3.89 -5.37,9.12 -8.88,13.05c-4.14,4.64 -10.34,7.06 -16.53,7.71s-12.42,-0.3 -18.53,-1.49c-5.06,-1 -10.19,-2.16 -15.32,-1.67c-0.5,0 -1,0.11 -1.46,0.19c0.3,0.29 0.6,0.58 0.91,0.86a37.4,37.4 0 0 0 1.74,23.76l26.35,-6.85l-23.5,12.36a37.42,37.42 0 0 0 68.91,-16.26a5.33,5.33 0 0 0 4.3,-2.91z"/>
  </g>
  <g id="svg_46" opacity="0.1">
   <path id="svg_47" fill="#3f3d56" d="m89.49,511.24c1.28,-3.89 6.47,-5.68 11.59,-4a12.78,12.78 0 0 1 2.13,0.92c0.33,-0.09 0.67,-0.17 1,-0.23a11.26,11.26 0 0 1 -0.32,-3.42a12.46,12.46 0 0 1 -5.47,-10.82a11.92,11.92 0 0 1 -4.14,-4.69a12,12 0 0 1 -1.33,-6.12a12,12 0 0 1 -4.14,-4.7c-2.46,-4.88 -1.46,-10.37 2.29,-12.27s8.77,0.55 11.24,5.43a12,12 0 0 1 1.32,6.13a12.37,12.37 0 0 1 5.47,10.81a12.4,12.4 0 0 1 5.47,10.82a12.37,12.37 0 0 1 5.47,10.81a12,12 0 0 1 4.15,4.7a12.66,12.66 0 0 1 1,2.9a10.66,10.66 0 0 1 2.23,-2.39a12.58,12.58 0 0 1 0.52,-2.27c1.69,-5.12 6.2,-8.24 10.09,-7s5.67,6.47 4,11.59a11.67,11.67 0 0 1 -3.81,5.59a12.67,12.67 0 0 1 -0.52,2.26a11.1,11.1 0 0 1 -5.11,6.42a12.84,12.84 0 0 1 0.42,2a12.57,12.57 0 0 1 2.53,3.43a12.32,12.32 0 0 1 1.26,4.08a12.55,12.55 0 0 1 2.54,3.43a12.39,12.39 0 0 1 1.26,4.08a12.45,12.45 0 0 1 2.54,3.44c2.47,4.88 1.45,10.38 -2.28,12.26s-8.77,-0.54 -11.24,-5.43a12.48,12.48 0 0 1 -1.26,-4.08a12.7,12.7 0 0 1 -3.8,-7.51a12.7,12.7 0 0 1 -3.8,-7.51a12.6,12.6 0 0 1 -2.54,-3.43a12.73,12.73 0 0 1 -1.26,-4.08a12.57,12.57 0 0 1 -2.53,-3.43a12.32,12.32 0 0 1 -1.26,-4.08a11.63,11.63 0 0 1 -1.71,-2a11.9,11.9 0 0 1 -6.18,-0.38a13.29,13.29 0 0 1 -2.14,-0.93a11.61,11.61 0 0 1 -6.75,-0.24c-5.07,-1.69 -8.2,-6.2 -6.93,-10.09z"/>
   <g id="svg_48" opacity="0.1">
    <path id="svg_49" d="m98.52,495.91a10.72,10.72 0 0 0 1.74,1.39a11.31,11.31 0 0 0 0.56,4.24a11.93,11.93 0 0 1 -1.06,-1.73a12.46,12.46 0 0 1 -1.24,-3.9z"/>
    <path id="svg_50" d="m93.05,485.11a11.21,11.21 0 0 0 1.74,1.38a11.39,11.39 0 0 0 0.56,4.25a12.7,12.7 0 0 1 -2.3,-5.63z"/>
    <path id="svg_51" d="m105.48,481.08a11.11,11.11 0 0 0 -0.08,-2.22a12.66,12.66 0 0 1 2.41,3.31a13,13 0 0 1 0.76,1.88a11.42,11.42 0 0 0 -3.09,-2.97z"/>
    <path id="svg_52" d="m140.18,546.54a11.65,11.65 0 0 0 -1.48,-1.7a12.4,12.4 0 0 0 -0.44,-2a13.23,13.23 0 0 1 1.15,1.86a13,13 0 0 1 0.77,1.84z"/>
    <path id="svg_53" d="m136.35,539.03a11.65,11.65 0 0 0 -1.48,-1.7a11.75,11.75 0 0 0 -0.42,-2l0,0a12.67,12.67 0 0 1 1.88,3.68l0.02,0.02z"/>
    <path id="svg_54" d="m104,506.75a10.11,10.11 0 0 0 1.73,1.37a10.9,10.9 0 0 0 0.32,3.42a10,10 0 0 0 -1,0.23a13.26,13.26 0 0 0 -2.14,-0.92c-5.12,-1.68 -10.31,0.11 -11.58,4a5.82,5.82 0 0 0 -0.17,3a6.93,6.93 0 0 1 -1.66,-6.61c1.28,-3.89 6.47,-5.68 11.59,-4a12.78,12.78 0 0 1 2.13,0.92c0.33,-0.09 0.67,-0.17 1,-0.23a10.32,10.32 0 0 1 -0.22,-1.18z"/>
    <path id="svg_55" d="m142.06,550.31a12.79,12.79 0 0 1 1.15,1.87a13,13 0 0 1 0.77,1.88a11.74,11.74 0 0 0 -1.48,-1.71a12.4,12.4 0 0 0 -0.44,-2.04z"/>
    <path id="svg_56" d="m110.95,491.91a11.08,11.08 0 0 0 -0.08,-2.22a12.49,12.49 0 0 1 2.41,3.31a12.87,12.87 0 0 1 0.76,1.87a11.38,11.38 0 0 0 -3.09,-2.96z"/>
    <path id="svg_57" d="m118.86,536.01a11.94,11.94 0 0 0 0.49,2.2a12.63,12.63 0 0 1 -1.88,-3.77a11.72,11.72 0 0 0 1.39,1.57z"/>
    <path id="svg_58" d="m126.45,551.03a12.66,12.66 0 0 0 0.5,2.2a11.93,11.93 0 0 1 -1.06,-1.73a12.88,12.88 0 0 1 -0.82,-2a13,13 0 0 0 1.38,1.53z"/>
    <path id="svg_59" d="m122.66,543.52a11.94,11.94 0 0 0 0.49,2.2a12.88,12.88 0 0 1 -1.06,-1.73a12.6,12.6 0 0 1 -0.82,-2a11.72,11.72 0 0 0 1.39,1.53z"/>
    <path id="svg_60" d="m115.06,528.49a11.86,11.86 0 0 0 0.49,2.21a12.44,12.44 0 0 1 -1,-1.73a12.23,12.23 0 0 1 -0.83,-2a11.13,11.13 0 0 0 1.34,1.52z"/>
    <path id="svg_61" d="m139.93,509.5c-3.89,-1.28 -8.4,1.84 -10.08,7a12.58,12.58 0 0 0 -0.52,2.27a10.63,10.63 0 0 0 -2.24,2.38a12.83,12.83 0 0 0 -1.05,-2.9c-0.17,-0.34 -0.36,-0.67 -0.56,-1a10.63,10.63 0 0 1 2,-2.1a12.58,12.58 0 0 1 0.52,-2.27c1.69,-5.12 6.2,-8.24 10.09,-7a6.93,6.93 0 0 1 4.34,5.26a5.93,5.93 0 0 0 -2.5,-1.64z"/>
    <path id="svg_62" d="m121.89,513.53a11.11,11.11 0 0 0 -0.08,-2.22a12.49,12.49 0 0 1 2.41,3.31a13,13 0 0 1 0.76,1.88a11.28,11.28 0 0 0 -3.09,-2.97z"/>
    <path id="svg_63" d="m116.42,502.71a11.13,11.13 0 0 0 -0.08,-2.22a12.83,12.83 0 0 1 2.41,3.31a13,13 0 0 1 0.76,1.88a11.42,11.42 0 0 0 -3.09,-2.97z"/>
    <path id="svg_64" d="m130.25,558.54a11.9,11.9 0 0 0 0.5,2.21a12.61,12.61 0 0 1 -1.06,-1.74a12.88,12.88 0 0 1 -0.82,-2a13,13 0 0 0 1.38,1.53z"/>
   </g>
   <path id="svg_65" fill="#3f3d56" d="m82.02,461.25a11.92,11.92 0 0 1 -4.14,-4.69c-2.47,-4.89 -1.45,-10.38 2.28,-12.27s8.77,0.54 11.24,5.43a11.93,11.93 0 0 1 1.32,6.12a12.4,12.4 0 0 1 5.47,10.82a12,12 0 0 1 4.15,4.69a13.23,13.23 0 0 1 0.76,1.86a10.57,10.57 0 0 0 -5.43,-4a6.16,6.16 0 0 1 -7.83,4a10.52,10.52 0 0 0 0,6.75a13.19,13.19 0 0 1 -1,-1.71a12,12 0 0 1 -1.33,-6.12a12.43,12.43 0 0 1 -5.47,-10.82l-0.02,-0.06z"/>
   <path id="svg_66" fill="#63ff65" d="m21.9,391.91a36.81,36.81 0 0 1 -4.39,-2.43l16.28,-11.9l-19.14,9.85a36.34,36.34 0 0 1 -13.59,-25.34l32.54,0.34l-32.61,-5.46a36.29,36.29 0 1 1 71.81,9.2a36.73,36.73 0 0 1 6.68,4l-17,23.64l20.41,-20.68a36.32,36.32 0 0 1 10.16,33.05a36.29,36.29 0 1 1 -50.9,25.74a36.28,36.28 0 0 1 -20.25,-40l0,-0.01z"/>
   <path id="svg_67" opacity="0.1" d="m89.85,382.69a36.12,36.12 0 0 1 3.2,23.53a36.29,36.29 0 1 1 -50.9,25.74c-7.13,-3.31 45.87,-52.9 47.7,-49.27z"/>
   <circle id="svg_68" fill="#63ff65" r="5.39" cy="324.78" cx="48.97"/>
   <circle id="svg_69" fill="#63ff65" r="5.39" cy="328.24" cx="17.51"/>
   <circle id="svg_70" fill="#63ff65" r="5.39" cy="376.63" cx="5.39"/>
   <circle id="svg_71" fill="#63ff65" r="5.39" cy="400.8" cx="21.76"/>
   <circle id="svg_72" fill="#63ff65" r="5.39" cy="450.99" cx="44.12"/>
   <circle id="svg_73" opacity="0.1" r="5.39" cy="450.99" cx="44.12"/>
   <circle id="svg_74" fill="#63ff65" r="5.39" cy="394.14" cx="93.85"/>
   <circle id="svg_75" opacity="0.1" r="5.39" cy="394.14" cx="93.85"/>
   <path id="svg_76" opacity="0.1" d="m99.6,482.72c3.58,-1.81 4.66,-6.93 2.57,-11.66c0.11,0.2 0.22,0.39 0.32,0.59c2.47,4.89 1.45,10.38 -2.29,12.27s-8.76,-0.54 -11.23,-5.43c-0.1,-0.2 -0.2,-0.4 -0.29,-0.61c2.57,4.49 7.34,6.65 10.92,4.84z"/>
   <path id="svg_77" opacity="0.1" d="m104.91,493.24c3.58,-1.81 4.67,-6.94 2.58,-11.66c0.11,0.19 0.22,0.39 0.32,0.59c2.47,4.89 1.45,10.38 -2.29,12.27s-8.76,-0.54 -11.23,-5.43c-0.11,-0.2 -0.2,-0.41 -0.29,-0.61c2.57,4.51 7.35,6.65 10.91,4.84z"/>
   <path id="svg_78" opacity="0.1" d="m110.23,503.75c3.58,-1.81 4.67,-6.93 2.57,-11.66c0.12,0.2 0.22,0.39 0.33,0.6c2.47,4.88 1.44,10.38 -2.29,12.26s-8.76,-0.54 -11.23,-5.43c-0.11,-0.2 -0.2,-0.4 -0.29,-0.61c2.56,4.49 7.33,6.65 10.91,4.84z"/>
   <path id="svg_79" opacity="0.1" d="m115.55,514.27c3.58,-1.81 4.67,-6.93 2.57,-11.66c0.11,0.19 0.22,0.39 0.32,0.59c2.48,4.89 1.45,10.38 -2.28,12.27s-8.77,-0.54 -11.24,-5.43c-0.1,-0.2 -0.19,-0.41 -0.28,-0.61c2.56,4.48 7.33,6.65 10.91,4.84z"/>
   <path id="svg_80" opacity="0.1" d="m120.87,524.78c3.58,-1.81 4.66,-6.93 2.57,-11.65c0.11,0.19 0.22,0.39 0.32,0.59c2.47,4.89 1.45,10.38 -2.28,12.27s-8.77,-0.55 -11.24,-5.43c-0.1,-0.21 -0.19,-0.41 -0.29,-0.61c2.57,4.48 7.34,6.64 10.92,4.83z"/>
   <path id="svg_81" opacity="0.1" d="m126.19,535.3c3.58,-1.81 4.66,-6.93 2.57,-11.66c0.11,0.2 0.22,0.39 0.32,0.59c2.47,4.89 1.45,10.38 -2.28,12.27s-8.77,-0.54 -11.24,-5.43c-0.1,-0.2 -0.2,-0.4 -0.29,-0.61c2.57,4.45 7.34,6.65 10.92,4.84z"/>
   <path id="svg_82" opacity="0.1" d="m131.51,545.82c3.57,-1.81 4.66,-6.94 2.57,-11.66c0.11,0.19 0.22,0.39 0.32,0.59c2.47,4.89 1.45,10.38 -2.29,12.27s-8.76,-0.55 -11.23,-5.43c-0.1,-0.21 -0.2,-0.41 -0.29,-0.61c2.57,4.48 7.34,6.65 10.92,4.84z"/>
   <path id="svg_83" opacity="0.1" d="m136.82,556.33c3.58,-1.81 4.67,-6.93 2.57,-11.66c0.12,0.2 0.22,0.39 0.33,0.6c2.47,4.88 1.44,10.38 -2.29,12.26s-8.76,-0.54 -11.23,-5.43c-0.11,-0.2 -0.2,-0.4 -0.29,-0.61c2.57,4.49 7.33,6.65 10.91,4.84z"/>
   <path id="svg_84" opacity="0.1" d="m140.35,563.24c3.58,-1.81 4.66,-6.93 2.57,-11.66c0.11,0.2 0.22,0.39 0.32,0.6c2.47,4.88 1.45,10.38 -2.28,12.26s-8.77,-0.54 -11.24,-5.43c-0.1,-0.2 -0.2,-0.4 -0.29,-0.61c2.54,4.51 7.31,6.65 10.92,4.84z"/>
   <path id="svg_85" fill="#63ff65" d="m44.21,516.44a18.57,18.57 0 0 1 -1,-4.93a2.69,2.69 0 1 1 0.41,-5.35a18.82,18.82 0 0 1 9.89,-12.75a2.69,2.69 0 1 1 4.81,-2.43a2.44,2.44 0 0 1 0.24,0.72a18.92,18.92 0 0 1 16.56,5a18.68,18.68 0 0 1 5,-0.14l2.18,9.92l0.05,-9.57a18.85,18.85 0 1 1 -10.08,36.29a2.76,2.76 0 0 1 -1.13,1.09a2.7,2.7 0 0 1 -3.7,-3.47a18.84,18.84 0 0 1 -2.41,-2a18.87,18.87 0 0 1 -19.8,-10l10.15,-1.71l-11.17,-0.67z"/>
   <g id="svg_86" opacity="0.1">
    <path id="svg_87" d="m59.89,521.26c3.75,-5 6.05,-10.8 8.69,-16.42a66.7,66.7 0 0 1 3.56,-6.74l2,-2.31c0.34,0.29 0.67,0.58 1,0.88a18.68,18.68 0 0 1 5,-0.14l2.18,9.92l0.03,-9.54a18.85,18.85 0 1 1 -10.08,36.29a2.76,2.76 0 0 1 -1.13,1.09a2.7,2.7 0 0 1 -3.7,-3.47a18.84,18.84 0 0 1 -2.41,-2a19,19 0 0 1 -11.31,-1.67a26.59,26.59 0 0 0 6.17,-5.89z"/>
   </g>
   <path id="svg_88" fill="#63ff65" d="m126.26,500a2.68,2.68 0 0 1 1.19,-3.61a2.64,2.64 0 0 1 1.22,-0.29a18.85,18.85 0 0 1 5.89,-10.5a18.71,18.71 0 0 1 -0.55,-5.89l9.89,-1.66l-9.61,-0.61a18.65,18.65 0 0 1 0.72,-2.66a2.64,2.64 0 0 1 -0.89,-1a2.7,2.7 0 0 1 3.32,-3.75a18.63,18.63 0 0 1 6.87,-5.93a18.84,18.84 0 0 1 26.77,21.5a2.69,2.69 0 0 1 0.16,4.87a2.7,2.7 0 0 1 -2.22,0.1a18.74,18.74 0 0 1 -3.57,4.34a18.9,18.9 0 0 1 -0.87,12l-13.23,-3.48l11.83,6.23a18.86,18.86 0 0 1 -32.83,-1.54a19.11,19.11 0 0 1 -1.94,-6.65a2.67,2.67 0 0 1 -2.15,-1.47z"/>
   <path id="svg_89" opacity="0.1" d="m126.26,500a2.68,2.68 0 0 1 1.19,-3.61a2.64,2.64 0 0 1 1.22,-0.29a18.85,18.85 0 0 1 5.89,-10.5c-0.08,-0.31 -0.15,-0.63 -0.21,-0.94a7.27,7.27 0 0 1 1,0.86c1.79,2 2.71,4.59 4.47,6.57a12.91,12.91 0 0 0 8.33,3.89a31.54,31.54 0 0 0 9.33,-0.75a27.35,27.35 0 0 1 7.72,-0.85l0.74,0.1l-0.46,0.43a18.9,18.9 0 0 1 -0.87,12l-13.26,-3.48l11.83,6.23a18.86,18.86 0 0 1 -32.83,-1.54a19.11,19.11 0 0 1 -1.94,-6.65a2.67,2.67 0 0 1 -2.15,-1.47z"/>
  </g>
  <path id="svg_90" opacity="0.1" fill="#63ff65" d="m346.35,51.91a20.23,20.23 0 0 0 -11.74,1.28a17.32,17.32 0 0 1 -14.1,0a19.76,19.76 0 0 0 -16.58,0.33a10.28,10.28 0 0 1 -4.77,1.19c-6.72,0 -12.31,-6.77 -13.47,-15.7a13.07,13.07 0 0 0 3.36,-3.62c3.94,-6.35 10,-10.43 16.89,-10.43s12.89,4 16.83,10.31a13,13 0 0 0 11.16,6.14l0.18,0c5.3,-0.03 9.93,4.26 12.24,10.5z"/>
  <path id="svg_91" opacity="0.1" fill="#63ff65" d="m366.77,23.91l-10.86,6.89l6.59,-12a10.74,10.74 0 0 0 -6.57,-2.34l-0.17,0a12.89,12.89 0 0 1 -2.25,-0.17l-3.69,2.34l1.58,-2.87a13.19,13.19 0 0 1 -6.44,-4.85l-6.61,4.13l4.16,-7.57c-3.85,-4.63 -9.05,-7.47 -14.76,-7.47c-6.85,0 -13,4.08 -16.9,10.43a12.62,12.62 0 0 1 -11.17,6l-0.33,0c-7.56,0 -13.7,8.57 -13.7,19.16s6.14,19.15 13.7,19.15a10.28,10.28 0 0 0 4.77,-1.19a19.72,19.72 0 0 1 16.58,-0.32a17.37,17.37 0 0 0 14.1,0a19.75,19.75 0 0 1 16.43,0.32a10.35,10.35 0 0 0 4.72,1.16c7.57,0 13.7,-8.57 13.7,-19.15a24.36,24.36 0 0 0 -2.88,-11.65z"/>
  <path id="svg_92" opacity="0.1" fill="#63ff65" d="m120.35,190.45a29,29 0 0 0 -16.77,1.82a24.71,24.71 0 0 1 -20.14,-0.05a28.22,28.22 0 0 0 -23.68,0.47a14.75,14.75 0 0 1 -6.82,1.7c-9.6,0 -17.59,-9.67 -19.25,-22.43a18.41,18.41 0 0 0 4.8,-5.17c5.63,-9.07 14.35,-14.9 24.14,-14.9s18.4,5.76 24,14.73a18.52,18.52 0 0 0 16,8.77l0.25,0c7.58,-0.01 14.2,6.12 17.47,15.06z"/>
  <path id="svg_93" opacity="0.1" fill="#63ff65" d="m149.55,150.4l-15.52,9.84l9.42,-17.13a15.34,15.34 0 0 0 -9.39,-3.35l-0.25,0a18.16,18.16 0 0 1 -3.22,-0.24l-5.24,3.39l2.26,-4.1a18.7,18.7 0 0 1 -9.2,-7l-9.42,6l5.93,-10.9c-5.51,-6.61 -12.93,-10.66 -21.09,-10.66c-9.79,0 -18.51,5.82 -24.14,14.89a18.05,18.05 0 0 1 -16,8.61l-0.53,0c-10.81,0 -19.57,12.25 -19.57,27.37s8.76,27.37 19.57,27.37a14.61,14.61 0 0 0 6.82,-1.71a28.22,28.22 0 0 1 23.68,-0.46a24.71,24.71 0 0 0 20.14,0.05a28.25,28.25 0 0 1 23.48,0.45a14.65,14.65 0 0 0 6.74,1.67c10.81,0 19.57,-12.26 19.57,-27.37a34.76,34.76 0 0 0 -4.04,-16.72z"/>
  <path id="svg_94" opacity="0.1" fill="#63ff65" d="m747.97,90.91a20.24,20.24 0 0 1 11.74,1.28a17.29,17.29 0 0 0 14.09,0a19.76,19.76 0 0 1 16.58,0.33a10.31,10.31 0 0 0 4.77,1.19c6.72,0 12.32,-6.77 13.48,-15.7a12.93,12.93 0 0 1 -3.36,-3.62c-3.92,-6.37 -10.05,-10.48 -16.92,-10.48s-12.88,4 -16.82,10.31a13,13 0 0 1 -11.18,6.17l-0.17,0c-5.32,-0.01 -9.96,4.28 -12.21,10.52z"/>
  <path id="svg_95" opacity="0.1" fill="#63ff65" d="m727.49,62.91l10.86,6.87l-6.6,-12a10.76,10.76 0 0 1 6.57,-2.34l0.18,0a13,13 0 0 0 2.25,-0.17l3.68,2.34l-1.58,-2.87a13.21,13.21 0 0 0 6.5,-4.83l6.59,4.18l-4.17,-7.57c3.86,-4.63 9,-7.47 14.77,-7.47c6.85,0 13,4.08 16.9,10.43a12.61,12.61 0 0 0 11.17,6l0.36,0c7.57,0 13.7,8.57 13.7,19.16s-6.13,19.15 -13.7,19.15a10.34,10.34 0 0 1 -4.77,-1.19a19.72,19.72 0 0 0 -16.58,-0.32a17.35,17.35 0 0 1 -14.09,0a19.77,19.77 0 0 0 -16.44,0.32a10.32,10.32 0 0 1 -4.72,1.16c-7.56,0 -13.7,-8.57 -13.7,-19.15a24.36,24.36 0 0 1 2.82,-11.7z"/>
  <ellipse id="svg_96" opacity="0.1" fill="#63ff65" ry="20" rx="115" cy="756.88" cx="615.63"/>
  <polygon id="svg_97" fill="#d0d2d5" points="555.44 661.88 377.25 659.59 377.78 655.02 386.39 579.63 542.88 579.63 554.39 655.02 555.27 660.74 555.44 661.88"/>
  <polygon id="svg_98" opacity="0.1" points="555.27 660.74 466.35 660.74 377.25 659.59 377.78 655.02 554.39 655.02 555.27 660.74"/>
  <rect id="svg_99" fill="#d0d2d5" height="5.71" width="236.45" y="656.17" x="347.55"/>
  <path id="svg_100" fill="#3f3d56" d="m809.59,124.82997a14.87,14.87 0 0 0 -14.8,-14.92l-660.32,0a14.87,14.87 0 0 0 -14.8,14.94l0,400.25l689.92,0l0,-400.27z"/>
  <path id="svg_101" fill="#d0d2d5" d="m119.67,523.1l0,46.88a14.8,14.8 0 0 0 14.8,14.8l660.32,0a14.8,14.8 0 0 0 14.8,-14.8l0,-46.88l-689.92,0z"/>
  <rect id="svg_102" fill="#fff" height="359.81" width="636.23" y="137.01" x="148.23"/>
  <polygon id="svg_104" opacity="0.1" points="483.48 584.77 554.57 656.17 543.66 584.77 483.48 584.77"/>
  <rect id="svg_105" opacity="0.1" fill="#444053" height="21.02" width="636.92" y="137.05" x="147.73"/>
  <rect id="svg_106" opacity="0.3" fill="#63ff65" rx="0.58" height="12.79" width="191.9" y="140.71" x="368.87"/>
  <path id="svg_107" fill="#3f3d56" d="m555.07,148.43l-0.47,0l-0.17,-0.15a3.89,3.89 0 0 0 0.9,-2.49a3.78,3.78 0 1 0 -3.77,3.81a3.9,3.9 0 0 0 2.49,-0.91l0.17,0.15l0,0.47l2.93,2.93l0.87,-0.88l-2.95,-2.93zm-3.51,0a2.64,2.64 0 1 1 2.63,-2.64a2.62,2.62 0 0 1 -2.63,2.64z"/>
  <circle id="svg_108" opacity="0.8" fill="#fa5959" r="3.85" cy="147.56" cx="159.18"/>
  <circle id="svg_109" opacity="0.8" fill="#fed253" r="3.85" cy="147.56" cx="169.77"/>
  <circle id="svg_110" opacity="0.8" fill="#8ccf4d" r="3.85" cy="147.56" cx="180.37"/>
  <ellipse id="svg_137" fill="#63ff65" ry="6.21" rx="32.29" cy="655.78" cx="813.11"/>
  <ellipse id="svg_138" fill="#3f3d56" ry="4.92" rx="3.76" cy="653.14" cx="812.57"/>
  <ellipse id="svg_139" fill="#3f3d56" ry="4.92" rx="3.76" cy="647.12" cx="812.57"/>
  <ellipse id="svg_140" fill="#3f3d56" ry="4.92" rx="3.76" cy="641.11" cx="812.57"/>
  <ellipse id="svg_141" fill="#3f3d56" ry="4.92" rx="3.76" cy="635.09" cx="812.57"/>
  <ellipse id="svg_142" fill="#3f3d56" ry="4.92" rx="3.76" cy="629.07" cx="812.57"/>
  <ellipse id="svg_143" fill="#3f3d56" ry="4.92" rx="3.76" cy="623.06" cx="812.57"/>
  <ellipse id="svg_144" fill="#3f3d56" ry="4.92" rx="3.76" cy="617.04" cx="812.57"/>
  <path id="svg_145" fill="#63ff65" d="m826.64,575.91a18.19,18.19 0 0 0 1.4,-2.06l-9.88,-1.62l10.69,0.07a18.11,18.11 0 0 0 0.34,-14.27l-14.34,7.44l13.22,-9.72a18,18 0 1 0 -29.72,20.16a17.92,17.92 0 0 0 -2.06,3.28l12.83,6.67l-13.68,-4.59a18,18 0 0 0 2.91,16.88a18,18 0 1 0 28.31,0a18,18 0 0 0 0,-22.27l-0.02,0.03z"/>
  <path id="svg_146" opacity="0.1" d="m794.47,587.01a17.91,17.91 0 0 0 3.88,11.14a18,18 0 1 0 28.31,0c2.39,-3.07 -32.19,-13.16 -32.19,-11.14z"/>
  <ellipse id="svg_147" fill="#63ff65" ry="8.94" rx="46.49" cy="776.87" cx="148.42"/>
  <ellipse id="svg_148" fill="#3f3d56" ry="7.09" rx="5.41" cy="773.07" cx="147.64"/>
  <ellipse id="svg_149" fill="#3f3d56" ry="7.09" rx="5.41" cy="764.41" cx="147.64"/>
  <ellipse id="svg_150" fill="#3f3d56" ry="7.09" rx="5.41" cy="755.75" cx="147.64"/>
  <ellipse id="svg_151" fill="#3f3d56" ry="7.09" rx="5.41" cy="747.09" cx="147.64"/>
  <ellipse id="svg_152" fill="#3f3d56" ry="7.09" rx="5.41" cy="738.43" cx="147.64"/>
  <ellipse id="svg_153" fill="#3f3d56" ry="7.09" rx="5.41" cy="729.76" cx="147.64"/>
  <ellipse id="svg_154" fill="#3f3d56" ry="7.09" rx="5.41" cy="721.1" cx="147.64"/>
  <path id="svg_155" fill="#63ff65" d="m167.9,661.84a27.23,27.23 0 0 0 2,-3l-14.22,-2.34l15.38,0.12a26,26 0 0 0 0.49,-20.55l-20.62,10.74l19,-14a25.93,25.93 0 1 0 -42.83,29a25.83,25.83 0 0 0 -3,4.72l18.47,9.6l-19.69,-6.61a25.93,25.93 0 0 0 4.26,24.39a25.93,25.93 0 1 0 40.76,0a25.92,25.92 0 0 0 0,-32.06l0,-0.01z"/>
  <path id="svg_156" opacity="0.1" d="m121.59,677.91a25.85,25.85 0 0 0 5.55,16a25.93,25.93 0 1 0 40.76,0c3.45,-4.42 -46.31,-18.95 -46.31,-16z"/>
 </g>
</svg>